<svg xmlns="http://www.w3.org/2000/svg">



	<symbol id="arrow">
		<path
			d="M14.19 0H5.81C2.17 0 0 2.17 0 5.81V14.18C0 17.83 2.17 20 5.81 20H14.18C17.82 20 19.99 17.83 19.99 14.19V5.81C20 2.17 17.83 0 14.19 0ZM12.79 10.53L9.26 14.06C9.11 14.21 8.92 14.28 8.73 14.28C8.54 14.28 8.35 14.21 8.2 14.06C7.91 13.77 7.91 13.29 8.2 13L11.2 10L8.2 7C7.91 6.71 7.91 6.23 8.2 5.94C8.49 5.65 8.97 5.65 9.26 5.94L12.79 9.47C13.09 9.76 13.09 10.24 12.79 10.53Z"
			fill="currentColor" />
	</symbol>
	<symbol id="advantages_icon_01">
		<path d="M2 12.5C2 6.98 6.44 2.5 12 2.5C18.67 2.5 22 8.06 22 8.06M22 8.06V3.06M22 8.06H17.56" stroke="currentColor"
			stroke-width="1.5" stroke-linecap="round" stroke-linejoin="round" />
		<path d="M21.89 12.5C21.89 18.02 17.41 22.5 11.89 22.5C6.37 22.5 3 16.94 3 16.94M3 16.94H7.52M3 16.94V21.94"
			stroke="currentColor" stroke-width="1.5" stroke-linecap="round" stroke-linejoin="round" />
	</symbol>
	<symbol id="advantages_icon_01">
		<path d="M2 12.5C2 6.98 6.44 2.5 12 2.5C18.67 2.5 22 8.06 22 8.06M22 8.06V3.06M22 8.06H17.56" stroke="currentColor"
			stroke-width="1.5" stroke-linecap="round" stroke-linejoin="round" />
		<path d="M21.89 12.5C21.89 18.02 17.41 22.5 11.89 22.5C6.37 22.5 3 16.94 3 16.94M3 16.94H7.52M3 16.94V21.94"
			stroke="currentColor" stroke-width="1.5" stroke-linecap="round" stroke-linejoin="round" />
	</symbol>
	<symbol id="advantages_icon_02">
		<path
			d="M11.02 20H7.5C6.88 20 6.33 19.98 5.84 19.91C3.21 19.62 2.5 18.38 2.5 15V10C2.5 6.62 3.21 5.38 5.84 5.09C6.33 5.02 6.88 5 7.5 5H10.96"
			stroke="currentColor" stroke-width="1.5" stroke-linecap="round" stroke-linejoin="round" />
		<path
			d="M15.02 5H16.5C17.12 5 17.67 5.02 18.16 5.09C20.79 5.38 21.5 6.62 21.5 10V15C21.5 18.38 20.79 19.62 18.16 19.91C17.67 19.98 17.12 20 16.5 20H15.02"
			stroke="currentColor" stroke-width="1.5" stroke-linecap="round" stroke-linejoin="round" />
		<path d="M15 2.5V22.5" stroke="currentColor" stroke-width="1.5" stroke-linecap="round" stroke-linejoin="round" />
		<path d="M11.0945 12.5H11.1035" stroke="currentColor" stroke-width="2" stroke-linecap="round" stroke-linejoin="round" />
		<path d="M7.09448 12.5H7.10346" stroke="currentColor" stroke-width="2" stroke-linecap="round" stroke-linejoin="round" />
	</symbol>
	<symbol id="advantages_icon_03">
		<path d="M2 9.5V7C2 4.51 4.01 2.5 6.5 2.5H9" stroke="currentColor" stroke-width="1.5" stroke-linecap="round"
			stroke-linejoin="round" />
		<path d="M15 2.5H17.5C19.99 2.5 22 4.51 22 7V9.5" stroke="currentColor" stroke-width="1.5" stroke-linecap="round"
			stroke-linejoin="round" />
		<path d="M22 16.5V18C22 20.49 19.99 22.5 17.5 22.5H16" stroke="currentColor" stroke-width="1.5" stroke-linecap="round"
			stroke-linejoin="round" />
		<path d="M9 22.5H6.5C4.01 22.5 2 20.49 2 18V15.5" stroke="currentColor" stroke-width="1.5" stroke-linecap="round"
			stroke-linejoin="round" />
		<path d="M17 10V15C17 17 16 18 14 18H10C8 18 7 17 7 15V10C7 8 8 7 10 7H14C16 7 17 8 17 10Z" stroke="currentColor"
			stroke-width="1.5" stroke-linecap="round" stroke-linejoin="round" />
		<path d="M19 12.5H5" stroke="currentColor" stroke-width="1.5" stroke-linecap="round" stroke-linejoin="round" />
		
	</symbol>
	<symbol id="dropdown_arrow">
		<path d="M20.42 8.9502L13.9 15.4702C13.13 16.2402 11.87 16.2402 11.1 15.4702L4.57996 8.9502" stroke="currentColor"
			stroke-width="1.5" stroke-miterlimit="10" stroke-linecap="round" stroke-linejoin="round" />

	</symbol>



</svg>