<svg width="117" height="45" viewBox="0 0 117 45" fill="none" xmlns="http://www.w3.org/2000/svg">
<g clip-path="url(#clip0_63_986)">
<path d="M24.3703 17.9635C24.2487 17.4771 24.1947 17.1258 24.1812 17.0177C24.2352 17.1123 24.2892 17.2069 24.3163 17.315V17.369L24.3298 17.3555L24.3703 17.9635Z" fill="white"/>
<path d="M18.8299 38.1758C18.6407 37.9866 18.5597 37.7164 18.6002 37.4462L19.046 34.1901C14.3308 34.2171 12.4122 35.1358 11.7772 35.5546L13.0202 38.3379L18.5597 44.2693C18.7218 44.4449 18.9515 44.5394 19.1811 44.5394H22.8561C23.5992 44.5394 23.991 43.6341 23.4641 43.0939L18.8299 38.1758Z" fill="white"/>
<path d="M36.4495 16.6529C36.4495 18.1526 31.3154 22.2734 28.3295 22.2734C25.7489 22.2734 24.3573 19.3686 24.3573 17.9635L24.3167 17.3555L24.3032 17.369V17.3149C24.2762 17.2068 24.2222 17.1123 24.1681 17.0177C24.1681 17.0042 24.1681 16.9772 24.1681 16.9772H24.1546C24.06 16.842 23.9384 16.734 23.7898 16.6664L18.8178 14.4236C18.7773 14.4101 18.7368 14.4101 18.6963 14.3696C17.1019 14.0723 15.9941 12.6942 16.0076 11.0459L16.3859 5.92527C16.4129 5.46594 16.7912 5.11465 17.2235 5.11465C17.2776 5.11465 17.3316 5.12816 17.3992 5.14166L23.7223 6.50625C23.7763 6.51975 23.8168 6.5333 23.8844 6.5333C24.2222 6.5333 24.5464 6.30361 24.6815 5.96583C24.7086 5.91177 24.7626 5.83073 24.7896 5.74965C25.2625 4.85794 26.1948 4.26346 27.2351 4.26346C27.708 4.26346 28.0863 3.87164 28.0863 3.39876V1.88554C28.1133 1.41267 28.4781 1.03436 28.951 1.03436H28.9645C30.883 1.03436 32.5584 2.41247 32.9367 4.3175C32.9367 4.3175 34.7876 10.8162 36.4495 16.6529Z" fill="white"/>
<path d="M39.8407 28.7857L39.3272 43.7287C39.2732 44.161 38.9084 44.4855 38.4895 44.4855H35.4226C34.9497 44.4855 34.5714 44.0937 34.5714 43.6208V33.9739C34.5714 33.5956 34.3417 33.2848 34.004 33.1767H30.7613C30.2885 33.1767 29.9237 33.555 29.9237 34.0279V43.6613C29.9237 44.1476 29.5319 44.5257 29.0725 44.5257H26.0055C25.5732 44.5257 25.2219 44.2016 25.1678 43.7964L23.6141 33.9198C23.5601 33.4875 23.1953 33.1767 22.7764 33.1767H20.8444C20.3445 33.1632 19.8581 33.1497 19.4122 33.1497C15.8994 33.1497 13.6971 33.6091 12.3461 34.1225C10.995 34.6359 10.4951 35.2169 10.3464 35.4195C10.2924 35.4601 10.2519 35.5276 10.2113 35.5952L8.9413 37.7029C8.8062 37.9326 8.77919 38.2028 8.87377 38.446L10.6842 43.3774C10.8869 43.9448 10.468 44.5257 9.90058 44.5257H5.86086C5.49606 44.5257 5.1988 44.3095 5.0637 43.9448L3.14516 38.1757C3.11813 38.0947 3.10462 38.0001 3.10462 37.9055L3.52346 27.8399C3.53697 27.3671 3.67208 26.9212 3.91528 26.4889C3.44239 26.2727 3.02356 26.0295 2.63174 25.7322C2.61823 25.7187 2.61823 25.7187 2.60472 25.7052C2.59121 25.6917 2.5777 25.6782 2.56419 25.6647C1.75354 25.0432 1.17257 24.192 0.834799 23.0841C0.456494 21.733 0.578093 20.409 1.11853 19.4497C1.22661 19.9496 1.29417 20.4225 1.4563 20.8683C1.713 21.6384 2.11833 22.314 2.68579 22.8544C2.6993 22.8679 2.6993 22.8679 2.71281 22.8815C2.71281 22.895 2.72632 22.9085 2.73983 22.922L4.25305 23.9488C4.26656 23.9488 4.26656 23.9488 4.28007 23.9623H4.29358C4.95561 24.2461 5.68519 24.3812 6.41478 24.3541C7.25245 24.3136 8.07662 24.165 8.90079 24.0569L23.3034 18.1526C23.3034 22.6653 25.4786 28.2182 30.3155 29.7179C31.1396 27.0428 37.0844 24.6919 37.0844 18.558C38.5166 23.7867 39.8407 28.529 39.8407 28.7857Z" fill="white"/>
<path d="M27.1675 3.50684V2.26384C27.1675 2.12874 27.181 2.00714 27.208 1.87203C26.7487 1.57479 26.2218 1.41266 25.6408 1.41266H25.6138C25.2895 1.41266 25.0193 1.68288 25.0193 2.02065V3.10152C25.0193 3.19609 25.0328 3.69599 25.0193 4.34451C25.6273 3.87164 26.3704 3.56089 27.1675 3.50684Z" fill="white"/>
<path d="M52.647 23.0427C51.2133 23.0427 49.934 22.7249 48.8097 22.0894C47.7016 21.4539 46.8377 20.5169 46.2184 19.2784C45.5994 18.0399 45.2896 16.5325 45.2896 14.7563C45.2896 13.0126 45.6156 11.5216 46.2674 10.2831C46.9192 9.04459 47.848 8.09128 49.0539 7.42318C50.2763 6.75505 51.7101 6.42096 53.356 6.42096C55.1812 6.42096 56.6559 6.75505 57.7802 7.42318C58.905 8.07501 59.7766 9.11792 60.3959 10.552L56.5095 12.0919C56.2974 11.2608 55.9226 10.6579 55.3848 10.2831C54.847 9.90826 54.179 9.72088 53.3803 9.72088C52.5821 9.72088 51.8975 9.91641 51.3272 10.3075C50.757 10.6823 50.325 11.2445 50.0318 11.9942C49.7385 12.7275 49.5917 13.64 49.5917 14.7318C49.5917 15.8725 49.7385 16.8258 50.0318 17.5918C50.3412 18.3576 50.7894 18.928 51.3763 19.3028C51.979 19.6613 52.7204 19.8406 53.6006 19.8406C54.0731 19.8406 54.5051 19.7836 54.8961 19.6695C55.287 19.5554 55.6294 19.3924 55.9226 19.1806C56.2159 18.9524 56.4442 18.6754 56.6073 18.3495C56.7699 18.0073 56.8514 17.6081 56.8514 17.1518V16.9073H53.1605V14.0963H60.4202V22.7983H57.5604L57.2428 19.0095L57.9271 19.5961C57.5847 20.7043 56.9658 21.5598 56.0694 22.1627C55.1893 22.7494 54.0488 23.0427 52.647 23.0427Z" fill="white"/>
<path d="M63.9568 9.15867C63.1095 9.15867 62.4901 9.00386 62.0991 8.69423C61.7244 8.36833 61.537 7.86316 61.537 7.17872C61.537 6.47802 61.7244 5.97281 62.0991 5.66322C62.4901 5.33728 63.1095 5.17432 63.9568 5.17432C64.7878 5.17432 65.3991 5.33728 65.7901 5.66322C66.181 5.97281 66.3765 6.47802 66.3765 7.17872C66.3765 7.86316 66.181 8.36833 65.7901 8.69423C65.3991 9.00386 64.7878 9.15867 63.9568 9.15867ZM66.0346 10.5764V22.7982H61.8789V10.5764H66.0346Z" fill="white"/>
<path d="M79.3561 7.30091L79.6984 10.0875C79.6006 10.0549 79.5025 10.0386 79.4047 10.0386C79.307 10.0223 79.2092 10.0142 79.1115 10.0142C78.3944 10.0142 77.857 10.1934 77.4985 10.5519C77.1561 10.8941 76.985 11.326 76.985 11.8475L75.5183 11.3097C75.5183 10.6415 75.6404 9.99787 75.885 9.37864C76.1296 8.75938 76.5043 8.25422 77.0093 7.86314C77.5309 7.47203 78.1827 7.27649 78.9651 7.27649C79.0138 7.27649 79.0709 7.27649 79.1358 7.27649C79.2174 7.27649 79.2908 7.2846 79.3561 7.30091ZM75.1517 20.085C76.5696 20.085 77.653 20.3864 78.4029 20.9894C79.1687 21.576 79.5516 22.4234 79.5516 23.5315C79.5516 24.5419 79.2746 25.3811 78.7205 26.0493C78.1665 26.7174 77.3841 27.2144 76.3737 27.5403C75.38 27.8825 74.1985 28.0536 72.8297 28.0536C70.6135 28.0536 69.0163 27.7766 68.0388 27.2226C67.0609 26.6685 66.5721 25.9189 66.5721 24.9737C66.5721 24.2893 66.8492 23.7352 67.4032 23.3115C67.9573 22.8879 68.878 22.6597 70.1653 22.6271L70.0676 23.0182C69.0734 22.8879 68.332 22.5945 67.8429 22.1382C67.3541 21.682 67.1096 21.0627 67.1096 20.2805C67.1096 19.4983 67.4194 18.8628 68.0388 18.3739C68.6577 17.8851 69.4807 17.6162 70.5072 17.5673L72.0229 18.2761H71.6319C70.9964 18.3087 70.5482 18.4147 70.2874 18.5939C70.0266 18.7732 69.8964 18.9932 69.8964 19.2539C69.8964 19.5309 70.0104 19.7428 70.2387 19.8894C70.4667 20.0198 70.809 20.085 71.2653 20.085H75.1517ZM72.854 25.3648C73.6364 25.3648 74.2801 25.3078 74.785 25.1937C75.3066 25.096 75.6976 24.9493 75.9584 24.7537C76.2192 24.5745 76.3494 24.3626 76.3494 24.1182C76.3494 23.8738 76.2598 23.6782 76.0805 23.5315C75.9012 23.4012 75.5755 23.336 75.103 23.336H70.7275C70.4176 23.336 70.1653 23.4175 69.9698 23.5805C69.7905 23.7434 69.7009 23.9471 69.7009 24.1915C69.7009 24.5663 69.9779 24.8515 70.532 25.047C71.086 25.2589 71.8599 25.3648 72.854 25.3648ZM73.0008 10.332C74.2391 10.332 75.2985 10.4949 76.1782 10.8208C77.0584 11.1467 77.7264 11.6193 78.1827 12.2385C78.6552 12.8415 78.8917 13.5911 78.8917 14.4874C78.8917 15.3673 78.6552 16.1169 78.1827 16.7362C77.7264 17.3554 77.0584 17.828 76.1782 18.1539C75.2985 18.4636 74.2391 18.6184 73.0008 18.6184C71.0613 18.6184 69.5865 18.2599 68.5762 17.5428C67.5825 16.8258 67.0852 15.8073 67.0852 14.4874C67.0852 13.5911 67.3136 12.8415 67.7699 12.2385C68.2424 11.6193 68.9185 11.1467 69.7986 10.8208C70.6784 10.4949 71.7459 10.332 73.0008 10.332ZM73.0008 12.703C72.463 12.703 72.0229 12.8578 71.6806 13.1674C71.3549 13.477 71.1919 13.917 71.1919 14.4874C71.1919 15.0414 71.3549 15.4733 71.6806 15.7829C72.0229 16.0925 72.463 16.2473 73.0008 16.2473C73.522 16.2473 73.954 16.0925 74.2963 15.7829C74.6382 15.4733 74.8094 15.0414 74.8094 14.4874C74.8094 13.917 74.6382 13.477 74.2963 13.1674C73.954 12.8578 73.522 12.703 73.0008 12.703Z" fill="white"/>
<path d="M60.5424 28.1619V44.2948H56.338V28.1619H60.5424ZM50.1783 28.1619V44.2948H45.9739V28.1619H50.1783ZM58.5866 34.5417V37.7927H48.027V34.5417H58.5866Z" fill="white"/>
<path d="M68.1025 31.8285C69.3899 31.8285 70.5146 32.0811 71.4759 32.5862C72.4538 33.0751 73.2114 33.8003 73.7492 34.7617C74.3033 35.7069 74.5803 36.8476 74.5803 38.1838C74.5803 39.5201 74.3033 40.6689 73.7492 41.6305C73.2114 42.5756 72.4538 43.3008 71.4759 43.8057C70.5146 44.2949 69.3899 44.539 68.1025 44.539C66.848 44.539 65.7318 44.2949 64.754 43.8057C63.7761 43.3008 63.0103 42.5756 62.4563 41.6305C61.9184 40.6689 61.6495 39.5201 61.6495 38.1838C61.6495 36.8476 61.9184 35.7069 62.4563 34.7617C63.0103 33.8003 63.7761 33.0751 64.754 32.5862C65.7318 32.0811 66.848 31.8285 68.1025 31.8285ZM68.1025 34.7862C67.63 34.7862 67.2228 34.9002 66.8805 35.1284C66.5382 35.3565 66.2778 35.7232 66.0985 36.2283C65.9192 36.7335 65.8296 37.3853 65.8296 38.1838C65.8296 38.9823 65.9192 39.6342 66.0985 40.1393C66.2778 40.6282 66.5382 40.9949 66.8805 41.2393C67.2228 41.4675 67.63 41.5815 68.1025 41.5815C68.5917 41.5815 69.007 41.4675 69.3493 41.2393C69.6917 40.9949 69.9525 40.6282 70.1317 40.1393C70.3106 39.6342 70.4002 38.9823 70.4002 38.1838C70.4002 37.3853 70.3106 36.7335 70.1317 36.2283C69.9525 35.7232 69.6917 35.3565 69.3493 35.1284C69.007 34.9002 68.5917 34.7862 68.1025 34.7862Z" fill="white"/>
<path d="M79.5819 44.539C78.7509 44.539 78.0175 44.4007 77.3824 44.1237C76.763 43.8305 76.2739 43.366 75.9157 42.7305C75.5572 42.0949 75.3779 41.2637 75.3779 40.2371V32.0729H79.5332V39.2593C79.5332 40.0415 79.6882 40.5874 79.9977 40.8971C80.3071 41.2067 80.7472 41.3615 81.3175 41.3615C81.6111 41.3615 81.8881 41.3126 82.1485 41.2149C82.4093 41.1008 82.6377 40.9378 82.8332 40.7259C83.0287 40.4978 83.1755 40.2126 83.2732 39.8704C83.3872 39.5119 83.4444 39.0964 83.4444 38.6238V32.0729H87.5997V44.2949H83.8841L83.762 41.9972C83.371 42.8607 82.8251 43.5044 82.1242 43.9282C81.4237 44.3354 80.576 44.539 79.5819 44.539Z" fill="white"/>
<path d="M89.119 44.2949V32.0729H92.8343L93.0545 36.2772L92.5901 35.8128C92.7527 34.9328 93.0383 34.1995 93.4455 33.6129C93.8693 33.0262 94.3905 32.5862 95.0099 32.2929C95.6454 31.9833 96.3544 31.8285 97.1364 31.8285C97.9837 31.8285 98.717 31.9914 99.3363 32.3174C99.9719 32.6432 100.469 33.124 100.827 33.7595C101.186 34.3951 101.365 35.1935 101.365 36.155V44.2949H97.2098V37.255C97.2098 36.4076 97.0468 35.821 96.7211 35.495C96.395 35.1691 95.9797 35.0062 95.4743 35.0062C95.0833 35.0062 94.7166 35.104 94.3743 35.2995C94.032 35.4787 93.7631 35.772 93.5676 36.1795C93.3721 36.5868 93.2743 37.1328 93.2743 37.8172V44.2949H89.119Z" fill="white"/>
<path d="M107.308 44.539C106.297 44.539 105.409 44.2949 104.643 43.8057C103.894 43.3008 103.307 42.5755 102.884 41.6305C102.476 40.6852 102.272 39.5527 102.272 38.2327C102.272 36.8638 102.484 35.7068 102.908 34.7617C103.348 33.8165 103.951 33.0914 104.717 32.5862C105.499 32.081 106.395 31.8285 107.406 31.8285C108.514 31.8285 109.402 32.1707 110.07 32.8551C110.755 33.5232 111.194 34.3788 111.39 35.4217L110.999 35.935V26.8908H115.154V44.2949H111.439L111.17 40.1393L111.659 40.506C111.561 41.3208 111.309 42.0296 110.901 42.6327C110.51 43.2355 110.005 43.708 109.386 44.0503C108.783 44.3764 108.09 44.539 107.308 44.539ZM108.75 41.4837C109.223 41.4837 109.622 41.3615 109.948 41.1171C110.29 40.8563 110.551 40.4734 110.73 39.9682C110.909 39.4631 110.999 38.8438 110.999 38.1105C110.999 37.4261 110.909 36.8476 110.73 36.375C110.567 35.8861 110.314 35.5195 109.972 35.275C109.646 35.0143 109.247 34.8839 108.774 34.8839C108.057 34.8839 107.487 35.1528 107.063 35.6905C106.656 36.212 106.452 37.0431 106.452 38.1838C106.452 39.3245 106.656 40.1638 107.063 40.7015C107.471 41.223 108.033 41.4837 108.75 41.4837Z" fill="white"/>
</g>
<defs>
<clipPath id="clip0_63_986">
<rect width="116" height="43.8042" fill="white" transform="translate(0.241577 0.85083)"/>
</clipPath>
</defs>
</svg>
