<svg width="150" height="58" viewBox="0 0 150 58" fill="none" xmlns="http://www.w3.org/2000/svg">
<path d="M113.763 31.7696H114.563V44.2013H113.763V31.7696ZM124.741 32.7874C126.05 32.7874 128.231 33.369 128.231 34.7503V35.55H127.358V34.9684C127.358 34.096 125.832 33.5871 124.814 33.5871C122.778 33.5871 121.179 35.1865 121.179 37.4402C121.179 39.6212 122.778 41.4387 124.886 41.4387C126.777 41.4387 127.94 40.1301 127.94 40.1301L128.449 40.7844C128.449 40.7844 127.14 42.3111 124.886 42.3111C122.197 42.3111 120.234 40.1301 120.234 37.4402C120.161 34.823 122.124 32.7874 124.741 32.7874ZM128.958 41.366H129.103C129.321 41.366 129.467 41.2933 129.612 41.0752L132.665 32.9328H133.683L136.737 41.0752C136.809 41.2933 136.955 41.366 137.245 41.366H137.391V42.1657H136.955C136.3 42.1657 136.082 42.0203 135.864 41.366L135.064 39.185H131.357L130.557 41.366C130.339 42.0203 130.121 42.1657 129.467 42.1657H129.03V41.366H128.958ZM134.774 38.458L133.538 35.1138C133.392 34.6776 133.174 33.8779 133.174 33.8779C133.174 33.8779 132.956 34.6776 132.811 35.1138L131.575 38.458H134.774Z" fill="white"/>
<path d="M21.6543 57.5057V28.1349C21.6543 27.1898 21.5816 26.3174 21.5089 25.3723C21.1454 22.4642 19.8368 20.2832 17.5831 18.8292C15.911 17.8114 13.0757 16.7936 9.22263 18.393L0.062439 22.1007L0.789439 22.8277L9.65883 19.2654C13.2211 17.8841 15.7656 18.6838 17.2196 19.6289C19.2552 20.8648 20.4184 22.9004 20.7092 25.5177C20.7819 26.3174 20.8546 27.1898 20.8546 28.1349V56.5606L21.6543 57.5057ZM9.73153 19.847L1.15294 23.2639L1.87994 23.991L10.1677 20.6467C13.1484 19.4835 15.184 20.1378 16.4199 20.8648C18.0193 21.8826 19.0371 23.482 19.2552 25.5904C19.3279 26.3174 19.4006 27.1171 19.4006 28.0622V55.1066L20.273 55.979V28.1349C20.273 27.2625 20.2003 26.3901 20.1276 25.5904C19.8368 23.1185 18.7463 21.301 16.8561 20.2105C15.4748 19.2654 13.0757 18.4657 9.73153 19.847ZM10.3131 21.2283L2.24344 24.4999L2.97044 25.2269L10.6766 22.1007C12.6395 21.3737 14.2389 21.3737 15.5475 22.1734C17.365 23.2639 17.6558 25.2269 17.7285 25.8812C17.8012 26.6082 17.8739 27.3352 17.8739 28.1349V53.6526L18.7463 54.525V28.1349C18.7463 27.3352 18.6736 26.5355 18.6009 25.7358C18.5282 25.0088 18.2374 22.755 16.0564 21.3737C14.457 20.4286 12.4941 20.3559 10.3131 21.2283ZM10.8947 22.6096L3.40664 25.5904L4.13364 26.3174L11.2582 23.4821C12.7122 22.9004 13.9481 22.9004 14.8205 23.4821C15.911 24.1364 16.1291 25.1542 16.2018 26.0266C16.2745 26.6082 16.3472 27.3352 16.3472 28.1349V52.1986L17.2196 53.071V28.1349C17.2196 27.3352 17.1469 26.6082 17.0742 25.8812C17.0015 25.3723 16.8561 23.6274 15.2567 22.6096C14.0935 21.9553 12.6395 21.8826 10.8947 22.6096ZM11.4763 23.9183L4.49714 26.7536L5.22414 27.4806L11.7671 24.7907C12.7849 24.3545 13.4392 24.3545 14.0208 24.6453C14.457 24.9361 14.6751 25.2996 14.7478 26.0993C14.8205 26.6809 14.8205 27.3352 14.8205 28.0622V50.6719L15.6929 51.5443V28.1349C15.6929 27.4079 15.6202 26.7536 15.6202 26.0266C15.5475 25.2996 15.3294 24.4999 14.457 23.8456C13.73 23.4093 12.7122 23.482 11.4763 23.9183Z" fill="white"/>
<path d="M44.4069 22.319L35.2467 18.6112C31.4663 17.0845 28.631 18.0296 27.0316 18.9748C24.7779 20.3561 23.4693 22.6098 23.1785 25.3724C23.1058 26.1721 23.0331 27.0445 23.0331 28.0623V57.5058L23.542 56.997V28.135C23.542 27.2626 23.6147 26.3902 23.6874 25.4451C23.9782 22.7552 25.2141 20.7196 27.3224 19.411C28.8491 18.4658 31.4663 17.6661 35.0286 19.0475L44.0434 22.7552L44.4069 22.319ZM30.8847 8.65132C30.8847 3.92581 27.0316 0 22.2334 0C17.4352 0 13.5821 3.85311 13.5821 8.65132C13.5821 13.4495 17.4352 17.3753 22.3061 17.3753C26.9589 17.3753 30.8847 13.4495 30.8847 8.65132ZM30.3758 8.65132C30.3758 13.1587 26.7408 16.7937 22.3061 16.7937C17.8714 16.7937 14.2364 13.1587 14.2364 8.72402C14.2364 4.28931 17.7987 0.581602 22.3061 0.581602C26.6681 0.581602 30.3758 4.14391 30.3758 8.65132ZM29.358 8.65132C29.358 4.72551 26.1592 1.454 22.1607 1.454C18.1622 1.454 15.0361 4.65281 15.0361 8.65132C15.0361 12.6498 18.2349 15.8486 22.2334 15.8486C26.2319 15.8486 29.358 12.6498 29.358 8.65132ZM28.7764 8.65132C28.7764 12.2863 25.7957 15.267 22.1607 15.267C18.5257 15.267 15.545 12.2863 15.545 8.65132C15.545 5.01631 18.5257 2.03561 22.1607 2.03561C25.9411 2.10831 28.7764 5.08901 28.7764 8.65132ZM27.904 8.65132C27.904 5.52521 25.3595 2.90801 22.1607 2.90801C18.9619 2.90801 16.4901 5.52521 16.4901 8.65132C16.4901 11.7774 19.0346 14.3946 22.2334 14.3946C25.4322 14.3946 27.904 11.7774 27.904 8.65132ZM27.3951 8.65132C27.3951 11.4866 25.0687 13.7403 22.3061 13.7403C19.5435 13.7403 17.2171 11.4139 17.2171 8.65132C17.2171 5.88872 19.5435 3.56231 22.3061 3.56231C24.996 3.56231 27.3951 5.81602 27.3951 8.65132ZM26.45 8.65132C26.45 6.32492 24.6325 4.50741 22.3061 4.50741C19.9797 4.50741 18.1622 6.32492 18.1622 8.65132C18.1622 10.9777 19.9797 12.7952 22.3061 12.7952C24.5598 12.8679 26.45 10.9777 26.45 8.65132ZM25.8684 8.65132C25.8684 10.6869 24.269 12.2863 22.2334 12.2863C20.1978 12.2863 18.5984 10.6869 18.5984 8.65132C18.5984 6.61572 20.1978 5.01631 22.2334 5.01631C24.1963 5.08901 25.8684 6.68842 25.8684 8.65132ZM24.9233 8.65132C24.9233 7.19732 23.7601 5.88872 22.1607 5.88872C20.7067 5.88872 19.3981 7.05192 19.3981 8.65132C19.3981 10.2507 20.5613 11.4139 22.1607 11.4139C23.6874 11.4139 24.9233 10.178 24.9233 8.65132ZM24.3417 8.65132C24.3417 9.81453 23.3966 10.8323 22.1607 10.8323C20.9975 10.8323 19.9797 9.88723 19.9797 8.65132C19.9797 7.41542 20.9248 6.47032 22.1607 6.47032C23.3966 6.47032 24.3417 7.48812 24.3417 8.65132ZM24.6325 25.5905C24.5598 26.3175 24.4871 27.1899 24.4871 28.135V56.0518L24.996 55.5429V28.135C24.996 27.2626 25.0687 26.4629 25.1414 25.6632C25.3595 23.4095 26.3046 21.8101 28.0494 20.7923C29.2853 19.9926 31.4663 19.3383 34.447 20.5742L42.8075 23.9911L43.2437 23.5549L34.6651 19.9926C31.3936 18.7566 29.1399 19.411 27.7586 20.2107C26.0138 21.4466 24.8506 23.1914 24.6325 25.5905ZM26.1592 25.8086C26.0865 26.5356 26.0138 27.2626 26.0138 28.2077V54.6705L26.5227 54.1616V28.135C26.5227 27.3353 26.5954 26.6083 26.6681 25.8086C26.7408 25.227 26.9589 23.1914 28.9218 22.0282C30.3031 21.1558 31.9752 21.1558 33.9381 21.8828L41.7897 25.0089L42.2259 24.5727L34.2289 21.3739C32.0479 20.5015 30.2304 20.5742 28.7037 21.5193C26.45 22.9006 26.2319 25.0816 26.1592 25.8086ZM27.5405 25.954C27.4678 26.6083 27.3951 27.3353 27.3951 28.135V53.1438L27.904 52.6349V28.135C27.904 27.408 27.9767 26.681 28.0494 25.954C28.1221 25.1543 28.4129 23.9184 29.5034 23.1914C30.5212 22.6098 31.7571 22.6098 33.2111 23.1914L40.4811 26.1721L40.9173 25.7359L33.5019 22.6825C31.8298 22.0282 30.3758 22.0282 29.2853 22.7552C27.9767 23.6276 27.6859 25.0089 27.5405 25.954ZM28.9945 26.0994C28.9218 26.681 28.9218 27.3353 28.9218 28.135V51.6171L29.4307 51.1082V28.135C29.4307 27.408 29.5034 26.7537 29.5034 26.0994C29.5761 25.2997 29.8669 24.8635 30.3031 24.5727C30.812 24.2092 31.6117 24.2819 32.7022 24.7181L39.3906 27.408L39.8268 26.9718L32.9203 24.2092C31.6844 23.7003 30.7393 23.7003 30.0123 24.1365C29.4307 24.5 29.1399 25.0816 28.9945 26.0994Z" fill="white"/>
<path d="M149.242 19.1196V17.3748C149.242 16.5751 148.878 16.2843 148.151 16.2843H141.39V18.1018H142.481V28.0618H144.662V23.3363H148.442V21.5188H144.662V18.1745H146.915C147.133 18.1745 147.279 18.3199 147.279 18.538V19.265L149.242 19.1196ZM138.191 19.1196H140.227V17.3748C140.227 16.5751 139.863 16.2843 139.136 16.2843H132.303V18.1018H133.393V28.0618H135.574V23.3363H139.354V21.5188H135.574V18.1745H137.828C138.046 18.1745 138.191 18.3199 138.191 18.538V19.1923V19.1196ZM130.776 28.0618H132.012V26.2443H131.794C131.503 26.2443 131.357 26.1716 131.285 25.8808L127.795 16.2116H125.541L122.052 25.8081C121.979 26.0989 121.834 26.1716 121.543 26.1716H121.325V27.9891H122.561C123.36 27.9891 123.651 27.771 123.942 27.044L124.669 24.9357H128.668L129.395 27.044C129.613 27.8437 129.903 28.0618 130.776 28.0618ZM128.086 23.1909H125.105L126.123 20.2101C126.341 19.6285 126.559 18.4653 126.559 18.4653H126.632C126.632 18.4653 126.85 19.5558 127.068 20.2101L128.086 23.1909ZM120.743 19.1196H122.706V17.3021C122.706 16.5024 122.488 16.2843 121.688 16.2843H113.473C112.674 16.2843 112.455 16.5751 112.455 17.3021V19.1196H114.418V18.3926C114.418 18.1745 114.564 18.0291 114.782 18.0291H116.527V27.9891H118.708V18.0291H120.452C120.671 18.0291 120.816 18.1745 120.816 18.3926V19.1196H120.743ZM105.404 19.265C105.404 18.538 106.131 18.0291 107.076 18.0291C107.875 18.0291 108.602 18.3926 108.602 18.9015V19.4104H110.638V18.3199C110.638 16.6478 108.457 15.9208 107.148 15.9208C104.895 15.9208 103.223 17.3021 103.223 19.265C103.223 22.9728 108.748 22.7547 108.748 24.7176C108.748 25.59 107.948 26.0989 107.076 26.0989C105.476 26.0989 104.24 24.7176 104.24 24.7176L103.077 26.2443C103.077 26.2443 104.531 28.0618 107.148 28.0618C109.62 28.0618 111.074 26.5351 111.074 24.5722C111.001 20.8645 105.404 21.3007 105.404 19.265ZM101.55 18.0291H102.277V16.2116H100.096C99.2967 16.2116 99.0059 16.5751 99.0059 17.3021V22.682C99.0059 23.3363 99.1513 24.3541 99.1513 24.3541H99.0786C99.0786 24.3541 98.5697 23.409 98.1335 22.682L93.6988 16.1389H91.6632V25.7354C91.6632 25.9535 91.5178 26.0989 91.2997 26.0989H90.5727V27.9164H92.7537C93.5534 27.9164 93.8442 27.5529 93.8442 26.8259V21.4461C93.8442 20.7917 93.6988 19.7739 93.6988 19.7739H93.7715C93.7715 19.7739 94.2804 20.7917 94.7166 21.4461L99.1513 27.9891H101.114V18.3926C101.187 18.1745 101.332 18.0291 101.55 18.0291ZM89.3368 26.8259V25.0811H87.3012V25.8081C87.3012 26.0262 87.1558 26.1716 86.9377 26.1716H84.1751C83.957 26.1716 83.8116 26.0262 83.8116 25.8081V22.9728H87.592V21.1553H83.8116V18.0291H86.5015C86.7196 18.0291 86.865 18.1745 86.865 18.3926V19.1196H88.9006V17.3748C88.9006 16.5751 88.5371 16.2843 87.8101 16.2843H80.6855V18.1018H81.776V26.8986C81.776 27.6983 82.1395 27.9891 82.8665 27.9891H88.1736C88.9733 28.0618 89.3368 27.6256 89.3368 26.8259ZM79.8131 26.8259V25.0811H77.7775V25.8081C77.7775 26.0262 77.6321 26.1716 77.414 26.1716H74.6514C74.4333 26.1716 74.2879 26.0262 74.2879 25.8081V22.9728H78.0683V21.1553H74.2879V18.0291H76.9778C77.1959 18.0291 77.3413 18.1745 77.3413 18.3926V19.1196H79.3769V17.3748C79.3769 16.5751 79.0134 16.2843 78.2864 16.2843H71.1618V18.1018H72.2523V26.8986C72.2523 27.6983 72.6158 27.9891 73.3428 27.9891H78.6499C79.4496 28.0618 79.8131 27.6256 79.8131 26.8259ZM69.1989 28.0618H70.2894V26.2443H70.0713C69.7078 26.2443 69.4897 26.1716 69.2716 25.8808L68.1811 23.6271C67.963 23.1909 67.5996 23.0455 67.5996 23.0455V22.9728C68.1085 22.9001 69.6351 22.0277 69.6351 19.8466C69.6351 17.5929 68.1811 16.2843 65.9275 16.2843H60.6931V18.0291H61.7836V27.9891H63.9646V23.6271H65.0551C65.6367 23.6271 65.9275 23.6998 66.1456 24.136L67.5996 27.1167C67.9631 27.9164 68.3265 28.0618 69.1989 28.0618ZM67.2361 19.8466C67.2361 21.0099 66.6545 21.6642 65.4913 21.6642H63.8192V17.9564H65.564C66.5818 18.0291 67.2361 18.6834 67.2361 19.8466ZM57.4943 28.0618H59.3118V23.0455C59.3118 22.2458 58.9483 21.955 58.2213 21.955H56.2584V23.7725H56.9854C57.2035 23.7725 57.3489 23.9179 57.3489 24.136V25.0084C57.3489 25.0084 56.2584 26.1716 54.3682 26.1716C52.2599 26.1716 50.5151 24.6449 50.5151 22.0277C50.5151 19.6285 52.2599 18.0291 54.2955 18.0291C56.0403 18.0291 57.3489 19.0469 57.3489 19.0469L58.5121 17.5202C58.5121 17.5202 57.1308 16.0662 54.2228 16.0662C50.8059 16.0662 48.1887 18.7561 48.1887 22.1004C48.1887 25.8808 50.8786 28.2799 53.932 28.2799C56.1857 28.2799 57.4216 27.044 57.4216 27.044H57.4943V28.0618Z" fill="white"/>
<path d="M107.077 41.3661V40.421H106.205V41.0753C106.205 41.2934 106.06 41.3661 105.914 41.3661H102.643C102.425 41.3661 102.352 41.2934 102.352 41.0753V33.2964C102.352 32.7148 102.134 32.4967 101.552 32.4967H100.534V33.3691H101.116C101.334 33.3691 101.407 33.4418 101.407 33.6599V41.3661C101.407 41.9477 101.625 42.1658 102.206 42.1658H106.205C106.787 42.1658 107.077 41.9477 107.077 41.3661ZM99.2257 42.1658H99.6619V41.2934H99.5165C99.2984 41.2934 99.0803 41.2207 99.0076 41.0026L95.8088 32.424H94.791L91.5923 41.0026C91.5196 41.2207 91.3741 41.2934 91.0833 41.2934H90.938V42.1658H91.3741C92.1011 42.1658 92.2465 42.0204 92.4646 41.3661L93.337 39.0397H97.1901L97.9898 41.3661C98.3533 42.0931 98.5714 42.1658 99.2257 42.1658ZM96.972 38.24H93.6278L94.8637 34.7504C95.0091 34.3142 95.2272 33.5145 95.2272 33.5145H95.2999C95.2999 33.5145 95.518 34.3142 95.6634 34.7504L96.972 38.24ZM82.6502 37.2949C82.6502 34.8958 84.3223 33.2237 86.4305 33.2237C87.521 33.2237 89.1931 33.7326 89.1931 34.605V35.1139H90.0655V34.3142C90.0655 32.8602 87.8118 32.2059 86.4305 32.2059C83.6679 32.2059 81.6324 34.3869 81.6324 37.1495C81.6324 39.9121 83.6679 42.2385 86.4305 42.2385C88.9023 42.2385 90.2109 40.7118 90.2109 40.7118L89.702 39.9848C89.702 39.9848 88.5389 41.3661 86.5033 41.3661C84.3223 41.4388 82.6502 39.6213 82.6502 37.2949ZM77.7066 42.1658H80.5419V41.2934H79.6695V33.3691H80.5419V32.4967H77.7066V33.3691H78.579V41.3661H77.7066V42.1658ZM76.6161 37.2949C76.6161 34.2415 74.5805 32.4967 71.7452 32.4967H67.8194V33.3691H68.6918V41.3661C68.6918 41.9477 68.9099 42.1658 69.4915 42.1658H71.6725C74.5805 42.1658 76.6161 40.4937 76.6161 37.2949ZM75.5983 37.2949C75.5983 39.9121 74.0716 41.2934 71.5998 41.2934H70.0004C69.7823 41.2934 69.7096 41.2207 69.7096 41.0026V33.3691H71.6725C73.9262 33.3691 75.5983 34.7504 75.5983 37.2949ZM66.8016 41.3661V40.421H65.9292V41.0753C65.9292 41.2934 65.7838 41.3661 65.6384 41.3661H62.2215C62.0034 41.3661 61.9307 41.2934 61.9307 41.0753V37.7311H65.5657V36.8587H61.9307V33.2964H65.2749C65.493 33.2964 65.5657 33.3691 65.5657 33.5872V34.2415H66.4381V33.2964C66.4381 32.7148 66.22 32.4967 65.6384 32.4967H60.1132V33.3691H60.9856V41.3661C60.9856 41.9477 61.2037 42.1658 61.7853 42.1658H66.0019C66.5835 42.1658 66.8016 41.9477 66.8016 41.3661ZM58.223 42.1658H59.1681V41.2934H58.6592C58.4411 41.2934 58.3684 41.2207 58.3684 41.0026L57.7141 32.424H56.6963L54.0791 38.0219C53.861 38.5308 53.6429 39.1124 53.6429 39.1124H53.5702C53.5702 39.1124 53.3521 38.4581 53.0613 38.0219L50.4441 32.424H49.5717L48.9174 41.0026C48.9174 41.2207 48.772 41.2934 48.6266 41.2934H48.1177V42.1658H48.9901C49.5717 42.1658 49.7898 41.9477 49.7898 41.3661L50.226 35.4047C50.2987 34.8958 50.2987 34.0234 50.2987 34.0234H50.3714C50.3714 34.0234 50.6622 34.8958 50.8803 35.4047L53.2067 40.3483H54.0791L56.4055 35.4047C56.6236 34.8958 56.9144 34.0961 56.9144 34.0961H56.9871C56.9871 34.0961 56.9871 34.8958 57.0598 35.4047L57.496 41.3661C57.4233 41.9477 57.6414 42.1658 58.223 42.1658Z" fill="white"/>
</svg>
