<svg width="145" height="35" viewBox="0 0 145 35" fill="none" xmlns="http://www.w3.org/2000/svg">
<path d="M140.617 1.79291V16.028H119.797V1.79291H116.285V33.8063H119.797V19.5712H140.617V33.8063H144.129V1.79291H140.617Z" fill="white"/>
<path d="M73.7156 33.8062L58.108 1.03139L56.159 5.11853L64.2644 22.1509H48.0535L42.5004 33.8062H46.3984L50.2655 25.6941H65.9505L69.8175 33.8062H73.7156ZM103.709 27.7455C103.291 28.1184 102.843 28.4603 102.379 28.7867C101.667 29.2684 100.909 29.6725 100.136 30.0144C98.5114 30.7137 96.779 31.0556 94.9846 31.0556C93.1903 31.0556 91.4578 30.6981 89.8336 30.0144C89.0448 29.688 88.3023 29.2684 87.5907 28.7867C86.8946 28.3049 86.2295 27.761 85.6263 27.1549C85.023 26.5488 84.4816 25.8961 84.0021 25.1813C83.5225 24.4664 83.1204 23.7049 82.7801 22.9279C82.084 21.2962 81.7437 19.5556 81.7437 17.7529C81.7437 15.9502 82.0995 14.2097 82.7801 12.578C83.1049 11.7854 83.5225 11.0239 84.0021 10.3246C84.4816 9.62527 85.023 8.95703 85.6263 8.35095C86.2295 7.74487 86.8792 7.20095 87.5907 6.7192C88.3023 6.23745 89.0602 5.8334 89.8336 5.4915C91.4578 4.79218 93.1903 4.45029 94.9846 4.45029C96.779 4.45029 98.5114 4.80772 100.136 5.4915C100.924 5.81785 101.682 6.23745 102.379 6.7192C102.858 7.04555 103.338 7.41852 103.771 7.80703L106.617 5.63137C103.601 2.70976 99.5014 0.922607 94.9846 0.922607C85.7345 0.922607 78.2323 8.45973 78.2323 17.7529C78.2323 27.0461 85.7345 34.5833 94.9846 34.5833C99.4705 34.5833 103.554 32.8116 106.555 29.9211L103.709 27.7455Z" fill="white"/>
<path d="M3.7529 9.81179V13.2462L9.56902 17.7996L11.3479 19.1982L12.5544 20.1462L14.6891 21.8246L16.8856 23.5496L17.0557 23.6739L17.2259 23.8137L19.4224 22.1043L22.7636 19.478L24.8982 17.7996L30.0028 13.7901L33.5141 11.0239V33.8063H30.0028V19.0428L26.1047 22.1043L22.7636 24.7306L20.567 26.4401L19.3605 27.3881L17.2259 29.0664V25.7252L17.0557 25.5854L16.8856 25.4455L16.0193 24.7617L13.4825 22.7725L11.3479 21.1097L10.1413 20.1462L7.14048 17.7996L3.7529 15.1422V33.8063H0.241577V1.79291L3.7529 4.55911L16.8856 14.8624L17.0557 14.7226L17.2259 14.5827L30.0028 4.55911L33.5141 1.79291V3.68884L30.0028 6.45505L18.0921 15.8104L17.2259 16.4786L17.0557 16.6185L16.8856 16.7584V20.1151L14.7509 18.4367L13.9466 17.7996L13.5289 17.4888L3.7529 9.81179Z" fill="white"/>
</svg>
