<svg width="135" height="36" viewBox="0 0 135 36" fill="none" xmlns="http://www.w3.org/2000/svg">
<g clip-path="url(#clip0_63_961)">
<mask id="mask0_63_961" style="mask-type:luminance" maskUnits="userSpaceOnUse" x="0" y="0" width="135" height="36">
<path d="M0.63446 35.2529H134.062V0.25293H0.63446V35.2529Z" fill="white"/>
</mask>
<g mask="url(#mask0_63_961)">
<path d="M13.3184 34.8719V32.6299H13.2184C12.6192 33.4679 11.8229 34.1455 10.8998 34.603C9.97668 35.0604 8.95519 35.2836 7.92543 35.2529C3.44343 35.2529 0.625427 32.2009 0.625427 17.6529C0.625427 9.16592 1.77043 0.25293 10.2574 0.25293C18.0304 0.25293 18.9354 6.45292 19.0794 12.2689H12.6424C12.4994 9.40792 12.0704 6.64293 10.2584 6.64293C8.54143 6.64293 7.87443 8.50292 7.87443 17.6569C7.87443 26.5739 8.01743 29.1009 10.1634 29.1009C11.7844 29.1009 12.4524 27.1459 12.4524 24.4759C12.4524 24.0469 12.4524 23.3309 12.4044 22.8549H10.0204V17.0849H18.9854V34.8709L13.3184 34.8719Z" fill="white"/>
<path d="M20.8065 17.8009C20.8065 4.92593 23.1435 0.25293 30.2485 0.25293C37.3535 0.25293 39.6895 4.92593 39.6895 17.8009C39.6895 29.2009 37.7345 35.2529 30.2485 35.2529C22.7625 35.2529 20.8065 29.1969 20.8065 17.8009ZM32.4415 17.8009C32.4415 8.64593 31.9645 6.50093 30.2485 6.50093C28.5325 6.50093 28.0545 8.64693 28.0545 17.8009C28.0545 27.8619 28.8175 29.2449 30.2485 29.2449C31.6795 29.2449 32.4415 27.8619 32.4415 17.8009Z" fill="white"/>
<path d="M41.0255 17.8009C41.0255 4.92593 43.3625 0.25293 50.4675 0.25293C57.5725 0.25293 59.9085 4.92593 59.9085 17.8009C59.9085 29.2009 57.9535 35.2529 50.4675 35.2529C42.9815 35.2529 41.0255 29.1969 41.0255 17.8009ZM52.6605 17.8009C52.6605 8.64593 52.1835 6.50093 50.4675 6.50093C48.7515 6.50093 48.2735 8.64693 48.2735 17.8009C48.2735 27.8619 49.0365 29.2449 50.4675 29.2449C51.8985 29.2449 52.6605 27.8619 52.6605 17.8009Z" fill="white"/>
<path d="M62.0074 34.8719V0.634949H69.3074C77.1274 0.634949 80.8474 4.35395 80.8474 17.4189C80.8474 28.0999 79.2264 34.8709 69.9274 34.8709L62.0074 34.8719ZM70.3524 28.2919C72.8794 28.2919 73.5954 25.097 73.5954 17.42C73.5954 8.45495 72.0694 7.21996 69.9234 7.21996H69.2074V28.2959L70.3524 28.2919Z" fill="white"/>
<path d="M84.1824 35.2539C83.192 35.26 82.203 35.1801 81.2264 35.0149V28.6259C81.7576 28.7519 82.3016 28.816 82.8474 28.8169C84.8974 28.8169 85.8474 27.7169 85.8474 25.7169V0.635925H92.7644V25.4359C92.7644 31.8259 90.5704 35.2599 84.1814 35.2599" fill="white"/>
<path d="M94.8644 17.8009C94.8644 4.92593 97.2004 0.25293 104.305 0.25293C111.41 0.25293 113.746 4.92593 113.746 17.8009C113.746 29.2009 111.791 35.2529 104.305 35.2529C96.8194 35.2529 94.8644 29.1969 94.8644 17.8009ZM106.499 17.8009C106.499 8.64593 106.022 6.50093 104.306 6.50093C102.59 6.50093 102.112 8.64693 102.112 17.8009C102.112 27.8619 102.875 29.2449 104.306 29.2449C105.737 29.2449 106.499 27.8619 106.499 17.8009Z" fill="white"/>
<path d="M115.846 34.8719V0.634949H123.523C130.437 0.634949 133.68 3.11394 133.68 9.98094C133.68 13.5579 132.249 15.799 129.865 16.991V17.086C132.865 18.326 134.065 20.9009 134.065 24.8109C134.065 33.2509 129.678 34.8719 123.574 34.8719H115.846ZM123.905 14.416C125.955 14.416 126.575 13.128 126.575 10.506C126.575 7.78795 125.575 6.97795 124.095 6.97795H122.617V14.4169L123.905 14.416ZM124.334 28.528C126.051 28.528 126.861 27.528 126.861 24.379C126.861 21.327 126.098 20.1349 124.095 20.1349H122.617V28.5269L124.334 28.528Z" fill="white"/>
</g>
</g>
<defs>
<clipPath id="clip0_63_961">
<rect width="133.428" height="35" fill="white" transform="translate(0.63446 0.25293)"/>
</clipPath>
</defs>
</svg>
