<svg width="171" height="36" viewBox="0 0 171 36" fill="none" xmlns="http://www.w3.org/2000/svg">
<path d="M168.585 18.57L162.471 19.2568C161.194 19.3941 160.288 19.7718 159.751 20.39C159.213 21.0081 158.944 21.6949 158.944 22.4848C158.944 23.4806 159.246 24.2705 159.885 24.8543C160.523 25.4381 161.464 25.7128 162.707 25.7128C163.648 25.7128 164.453 25.5755 165.192 25.2321C165.931 24.8887 166.536 24.4766 167.039 23.9271C167.544 23.3777 167.914 22.7595 168.182 22.0727C168.451 21.3859 168.585 20.6991 168.585 19.9779V18.57ZM157.399 13.8652C157.533 13.3158 157.768 12.7663 158.104 12.2512C158.407 11.7705 158.843 11.324 159.381 10.9463C159.918 10.5685 160.556 10.2594 161.33 10.0534C162.069 9.84735 162.975 9.74432 164.05 9.74432C166.267 9.74432 167.947 10.2938 169.022 11.324C170.097 12.3886 170.634 13.9683 170.634 16.063V27.3268H168.585V23.6524C168.048 24.9573 167.241 25.9532 166.166 26.64C165.091 27.3268 163.848 27.6702 162.438 27.6702C161.497 27.6702 160.691 27.5672 159.986 27.2925C159.28 27.0178 158.709 26.6744 158.238 26.1936C157.768 25.7471 157.399 25.1977 157.163 24.5453C156.895 23.9271 156.794 23.2403 156.794 22.4848C156.794 20.9051 157.298 19.6689 158.306 18.8103C159.314 17.9861 160.624 17.4711 162.169 17.2993L167.745 16.7498C168.283 16.6812 168.585 16.4408 168.585 16.0287V15.4106C168.585 14.243 168.216 13.3502 167.544 12.6633C166.839 11.9765 165.696 11.6331 164.151 11.6331C161.295 11.6331 159.65 12.732 159.213 14.8611L157.399 13.8652Z" fill="white"/>
<path d="M140.441 18.776C140.441 17.4711 140.643 16.2691 141.046 15.1702C141.45 14.0713 142.054 13.1441 142.827 12.3199C143.599 11.4957 144.54 10.8776 145.615 10.4311C146.69 9.98471 147.899 9.74432 149.243 9.74432C150.453 9.74432 151.527 9.95037 152.501 10.3281C153.475 10.7402 154.349 11.2897 155.088 12.0108L153.778 13.6592C153.106 13.0754 152.401 12.6289 151.628 12.2855C150.855 11.9421 150.015 11.7705 149.142 11.7705C148.168 11.7705 147.295 11.9421 146.488 12.2855C145.681 12.6289 144.977 13.0754 144.405 13.6592C143.801 14.2773 143.364 14.9985 143.029 15.857C142.692 16.7498 142.558 17.7114 142.558 18.7416C142.558 19.8062 142.692 20.7678 143.029 21.6262C143.364 22.4848 143.801 23.2059 144.405 23.824C144.977 24.4422 145.681 24.8887 146.488 25.2321C147.295 25.5755 148.168 25.7128 149.109 25.7128C150.049 25.7128 150.923 25.5411 151.729 25.1977C152.535 24.8543 153.274 24.3735 153.945 23.7554L155.189 25.4037C154.45 26.0905 153.61 26.6744 152.602 27.0865C151.594 27.5329 150.418 27.7389 149.142 27.7389C147.799 27.7389 146.622 27.5329 145.547 27.0865C144.473 26.64 143.532 26.0219 142.793 25.2321C142.02 24.4422 141.45 23.4806 141.046 22.3817C140.643 21.2828 140.441 20.081 140.441 18.776Z" fill="white"/>
<path d="M138.634 24.4579C139.026 24.4579 139.369 24.608 139.646 24.8751C139.908 25.1588 140.054 25.5093 140.054 25.9099C140.054 26.327 139.908 26.6776 139.646 26.9446C139.369 27.2116 139.026 27.3452 138.634 27.3452C138.226 27.3452 137.883 27.2116 137.622 26.9446C137.361 26.6776 137.231 26.327 137.231 25.9099C137.231 25.5093 137.361 25.1588 137.622 24.8751C137.883 24.608 138.226 24.4579 138.634 24.4579Z" fill="white"/>
<path d="M122.602 14.9985C122.602 13.3844 123.173 12.1139 124.348 11.1523C125.491 10.2251 127.137 9.74432 129.254 9.74432C130.866 9.74432 132.21 10.0534 133.285 10.6028C134.36 11.1523 135.233 11.9078 135.939 12.8694L133.487 15.2732C133.083 14.6551 132.478 14.1743 131.739 13.7622C131 13.3502 130.094 13.1441 129.052 13.1441C128.212 13.1441 127.54 13.3158 127.037 13.5905C126.532 13.8996 126.297 14.3117 126.297 14.8268C126.297 15.4793 126.6 15.9257 127.271 16.1661C127.943 16.4408 128.917 16.7156 130.261 16.9903C130.967 17.1619 131.672 17.368 132.344 17.574C133.016 17.7801 133.654 18.0892 134.191 18.4669C134.729 18.879 135.132 19.3597 135.468 19.9779C135.804 20.596 135.972 21.3515 135.972 22.2788C135.972 23.2403 135.804 24.0301 135.468 24.7169C135.132 25.4037 134.662 25.9876 134.057 26.4339C133.452 26.8804 132.747 27.2237 131.908 27.4298C131.068 27.6358 130.16 27.7389 129.153 27.7389C127.54 27.7389 126.063 27.4642 124.752 26.9147C123.409 26.3653 122.4 25.5068 121.695 24.2705L124.181 21.8323C124.684 22.7251 125.39 23.3777 126.331 23.7898C127.271 24.2018 128.279 24.3735 129.388 24.3735C130.228 24.3735 130.934 24.2361 131.471 23.9614C132.008 23.6867 132.277 23.2059 132.277 22.5191C132.277 21.8667 131.974 21.4202 131.37 21.1455C130.765 20.8707 129.824 20.596 128.548 20.3213C127.876 20.1839 127.204 20.0123 126.499 19.8062C125.793 19.6002 125.155 19.2911 124.584 18.879C123.979 18.5013 123.509 17.9861 123.14 17.368C122.771 16.7498 122.602 15.9601 122.602 14.9985Z" fill="white"/>
<path d="M115.682 5.93858C115.682 5.21742 115.917 4.59928 116.42 4.08417C116.891 3.6034 117.496 3.32867 118.235 3.32867C118.94 3.32867 119.545 3.6034 120.049 4.08417C120.519 4.59928 120.788 5.21742 120.788 5.93858C120.788 6.69407 120.519 7.31221 120.049 7.79298C119.545 8.30809 118.94 8.54848 118.235 8.54848C117.496 8.54848 116.891 8.30809 116.42 7.79298C115.917 7.31221 115.682 6.69407 115.682 5.93858ZM120.049 10.1569V27.3273H116.42V10.1569H120.049Z" fill="white"/>
<path d="M109.94 10.5685C109.134 11.1179 108.496 11.9078 107.992 12.8694V10.1564H104.498V27.3268H108.126V19.4628C108.126 17.6427 108.462 16.2348 109.168 15.2046C109.839 14.1743 111.049 13.6592 112.729 13.6592C113.064 13.6592 113.367 13.6936 113.669 13.7278L114.576 9.95037C114.038 9.813 113.468 9.74432 112.93 9.74432C111.721 9.74432 110.747 10.019 109.94 10.5685Z" fill="white"/>
<path d="M98.9277 27.3264H102.349V23.8922H99.7623C99.0905 23.8922 98.6201 23.7548 98.3514 23.4458C98.0826 23.1367 97.9483 22.6903 97.9483 22.0722V13.3152H102.383V10.1559H97.9483V5.55426H94.3202V10.1559H91.1289V13.3152H94.3202V22.3125C94.3202 24.2356 94.7233 25.575 95.5295 26.3305C96.3359 27.1202 97.3824 27.3264 98.9277 27.3264Z" fill="white"/>
<path d="M78.4202 12.526C79.0248 11.6331 79.831 10.9463 80.7717 10.4655C81.7123 9.98471 82.7536 9.74432 83.9294 9.74432C84.9372 9.74432 85.8441 9.91603 86.6168 10.2594C87.3894 10.6028 88.0277 11.1179 88.5316 11.7361C89.0356 12.3542 89.405 13.1097 89.6738 14.0026C89.9089 14.8954 90.0433 15.857 90.0433 16.9559V27.3268H86.3481V17.4367C86.3481 16.0287 86.0121 14.9641 85.3739 14.2773C84.7356 13.5905 83.8958 13.2471 82.8208 13.2471C82.0146 13.2471 81.3092 13.4188 80.7717 13.6936C80.2342 14.0026 79.7975 14.4147 79.4615 14.9298C79.1255 15.4793 78.8568 16.0974 78.7224 16.8185C78.5881 17.574 78.5209 18.3639 78.5209 19.2224V27.3268H74.8929V10.1564H78.4202V12.526Z" fill="white"/>
<path d="M56.3208 18.8103C56.3208 17.574 56.4888 16.3721 56.8919 15.2732C57.295 14.1743 57.8325 13.2128 58.5715 12.3886C59.3106 11.5644 60.1841 10.9463 61.2254 10.4655C62.2668 9.98471 63.4425 9.74432 64.7527 9.74432C66.0292 9.74432 67.2049 9.98471 68.2127 10.4311C69.2205 10.8776 70.094 11.4957 70.7994 12.2855C71.4713 13.1097 72.0087 14.0713 72.3782 15.1702C72.7142 16.2691 72.9157 17.5053 72.9157 18.8103V19.8749H60.0161V19.9092C60.0832 20.6647 60.2848 21.2828 60.5872 21.8323C60.8895 22.3817 61.259 22.8625 61.7292 23.2059C62.1996 23.5493 62.7035 23.824 63.2745 23.9958C63.8456 24.2018 64.4503 24.2705 65.055 24.2705C66.1636 24.2705 67.1378 24.0645 67.9776 23.618C68.7838 23.2059 69.4893 22.6565 70.094 22.0383L71.8071 25.026C71.1017 25.7128 70.1947 26.3653 69.1198 26.9147C68.0112 27.4642 66.6674 27.7389 65.0885 27.7389C63.7449 27.7389 62.5019 27.5329 61.427 27.0864C60.3519 26.6744 59.4114 26.0563 58.6723 25.2664C57.9333 24.4766 57.3286 23.5493 56.9255 22.4504C56.5224 21.3515 56.3208 20.1496 56.3208 18.8103ZM68.9518 17.059C68.8174 15.8914 68.4143 14.9298 67.7089 14.1743C67.0034 13.4188 65.9956 13.041 64.6854 13.041C63.3417 13.041 62.2668 13.4188 61.5277 14.1399C60.755 14.8611 60.2512 15.8227 60.0497 17.059H68.9518Z" fill="white"/>
<path d="M40.8157 18.776C40.8157 17.4711 41.0173 16.2348 41.4539 15.1359C41.8906 14.037 42.4953 13.1097 43.3015 12.2855C44.0742 11.4957 45.0148 10.8776 46.0897 10.4311C47.1648 9.98471 48.3741 9.74432 49.7178 9.74432C51.0279 9.74432 52.2037 9.98471 53.245 10.4311C54.2529 10.8776 55.1598 11.4957 55.9325 12.2512L53.7489 15.1702C53.2114 14.6551 52.6403 14.2086 51.9685 13.8652C51.2967 13.5218 50.4905 13.3502 49.617 13.3502C48.8779 13.3502 48.2061 13.4875 47.6014 13.7278C46.9632 14.0026 46.4257 14.346 45.989 14.8268C45.5186 15.3075 45.1828 15.857 44.914 16.5095C44.6453 17.1963 44.5445 17.9174 44.5445 18.7416C44.5445 19.5658 44.6453 20.3213 44.914 20.9738C45.1828 21.6606 45.5186 22.2101 45.989 22.6909C46.4257 23.1716 46.9632 23.515 47.5679 23.7554C48.1725 24.0301 48.8444 24.1332 49.5834 24.1332C50.5241 24.1332 51.3303 23.9614 52.0357 23.5837C52.7412 23.2403 53.3794 22.7938 53.9169 22.2444L55.9996 25.1977C55.2607 25.9532 54.3872 26.537 53.3123 27.0178C52.2372 27.4986 50.9943 27.7389 49.5834 27.7389C48.2397 27.7389 47.0639 27.5329 45.989 27.0865C44.914 26.6744 43.9734 26.0563 43.2344 25.2664C42.4617 24.4766 41.8571 23.515 41.4539 22.4161C41.0173 21.3172 40.8157 20.1152 40.8157 18.776Z" fill="white"/>
<path d="M27.4628 16.3993C30.6068 16.4412 33.5319 15.4818 35.9341 13.8184C34.1639 5.9989 27.2271 0.113135 18.8593 0.00160563C16.8618 -0.0250181 14.9364 0.280154 13.1365 0.864904C13.1198 1.12494 13.1075 1.38797 13.1039 1.6526C12.9969 9.69121 19.4243 16.2936 27.4614 16.4007L27.4628 16.3993Z" fill="white"/>
<path d="M14.1308 17.6921C14.2052 12.1159 11.1345 7.23153 6.56213 4.72534C3.12079 7.91432 0.940464 12.4523 0.873007 17.5153C0.805551 22.5785 2.86421 27.1729 6.21937 30.4524C10.8554 28.0704 14.0566 23.2683 14.1308 17.6921Z" fill="white"/>
<path d="M12.6767 33.7004C12.6732 33.9651 12.6771 34.2268 12.6883 34.4887C14.4719 35.1212 16.3886 35.4776 18.386 35.5042C26.7537 35.6158 33.845 29.917 35.8229 22.1473C33.4658 20.4191 30.5674 19.3836 27.4233 19.3417C19.3864 19.2345 12.7853 25.6632 12.6782 33.7019L12.6767 33.7004Z" fill="white"/>
</svg>
